HIERARCHY
ROOT Hips
{
 OFFSET 0.000000 0.000000 0.000000
 CHANNELS 6 Xposition Yposition Zposition Yrotation Xrotation Zrotation
 JOINT Chest
 {
  OFFSET 0.000000 9.585900 0.002600
  CHANNELS 3 Yrotation Xrotation Zrotation
  JOINT Chest2
  {
   OFFSET 0.000000 9.601200 -0.005300
   CHANNELS 3 Yrotation Xrotation Zrotation
   JOINT Chest3
   {
    OFFSET 0.000000 9.561800 0.000000
    CHANNELS 3 Yrotation Xrotation Zrotation
    JOINT Chest4
    {
     OFFSET 0.000000 9.552100 0.000000
     CHANNELS 3 Yrotation Xrotation Zrotation
     JOINT Neck
     {
      OFFSET 0.000000 14.453000 0.000000
      CHANNELS 3 Yrotation Xrotation Zrotation
      JOINT Head
      {
       OFFSET 0.000000 8.936500 -0.011300
       CHANNELS 3 Yrotation Xrotation Zrotation
       End Site
       {
        OFFSET 0.000000 17.073600 -0.006000
       }
      }
     }
     JOINT RightCollar
     {
      OFFSET -2.921100 9.558500 0.000000
      CHANNELS 3 Yrotation Xrotation Zrotation
      JOINT RightShoulder
      {
       OFFSET -13.519700 0.000000 0.000000
       CHANNELS 3 Yrotation Xrotation Zrotation
       JOINT RightElbow
       {
        OFFSET 0.000000 -29.696600 0.000000
        CHANNELS 3 Yrotation Xrotation Zrotation
        JOINT RightWrist
        {
         OFFSET 0.000000 -24.004700 0.000000
         CHANNELS 3 Yrotation Xrotation Zrotation
         End Site
         {
          OFFSET 0.000000 -17.728500 0.000000
         }
        }
       }
      }
     }
     JOINT LeftCollar
     {
      OFFSET 2.921100 9.558500 0.000000
      CHANNELS 3 Yrotation Xrotation Zrotation
      JOINT LeftShoulder
      {
       OFFSET 13.519700 0.000000 0.000000
       CHANNELS 3 Yrotation Xrotation Zrotation
       JOINT LeftElbow
       {
        OFFSET 0.000000 -29.696600 0.000000
        CHANNELS 3 Yrotation Xrotation Zrotation
        JOINT LeftWrist
        {
         OFFSET 0.000000 -24.004700 0.000000
         CHANNELS 3 Yrotation Xrotation Zrotation
         End Site
         {
          OFFSET 0.000000 -17.728500 0.000000
         }
        }
       }
      }
     }
    }
   }
  }
 }
 JOINT RightHip
 {
  OFFSET -7.771700 -0.012900 -0.001300
  CHANNELS 3 Yrotation Xrotation Zrotation
  JOINT RightKnee
  {
   OFFSET 0.000000 -40.869800 0.001200
   CHANNELS 3 Yrotation Xrotation Zrotation
   JOINT RightAnkle
   {
    OFFSET 0.000000 -39.717900 0.002100
    CHANNELS 3 Yrotation Xrotation Zrotation
    JOINT RightToe
    {
     OFFSET 0.000000 -4.965400 11.033500
     CHANNELS 3 Yrotation Xrotation Zrotation
     End Site
     {
      OFFSET 0.000000 -1.423100 5.872300
     }
    }
   }
  }
 }
 JOINT LeftHip
 {
  OFFSET 7.771700 -0.012900 -0.001300
  CHANNELS 3 Yrotation Xrotation Zrotation
  JOINT LeftKnee
  {
   OFFSET 0.000000 -40.869800 0.001200
   CHANNELS 3 Yrotation Xrotation Zrotation
   JOINT LeftAnkle
   {
    OFFSET 0.000000 -39.717900 0.002100
    CHANNELS 3 Yrotation Xrotation Zrotation
    JOINT LeftToe
    {
     OFFSET 0.000000 -4.965400 11.033500
     CHANNELS 3 Yrotation Xrotation Zrotation
     End Site
     {
      OFFSET 0.000000 -1.423100 5.872300
     }
    }
   }
  }
 }
}
MOTION
Frames: 5
Frame Time: 0.008333
8.602154 49.538971 46.421555 171.265155 -33.034197 -7.001856 7.066049 18.922723 7.348275 0.815261 2.538783 0.784143 1.339468 4.092234 1.237014 6.045527 16.219524 5.670859 -1.542056 15.337844 -0.495617 -2.697297 -7.307682 -0.358795 -1.387119 -3.622097 -3.200359 1.759303 -1.803143 1.146155 55.249942 -82.468901 -66.347729 1.636809 -1.563961 0.639759 -11.442562 -2.950528 0.355497 2.148551 -3.589315 -1.216748 -83.502473 -77.620527 101.043604 10.609539 -2.738082 -23.565542 0.682546 -47.025059 12.918463 -113.409873 86.064669 -100.621622 -4.317342 -12.543013 -5.034060 -0.004332 0.728548 -0.022402 -11.238999 -50.876581 17.382068 -160.924903 80.845495 -167.108831 1.981233 -16.577377 5.417452 -0.010509 -0.395013 0.007336
8.614839 49.560332 46.394645 171.285476 -32.969943 -6.974389 7.048362 18.926790 7.384496 0.804602 2.502874 0.746185 1.332704 4.084213 1.238525 6.024984 16.206290 5.679983 -1.543471 15.354588 -0.507644 -2.695309 -7.276790 -0.381052 -1.354616 -3.607356 -3.203412 1.727173 -1.729886 1.155606 59.117835 -82.178229 -70.278500 1.900588 -0.954494 0.881238 -11.450817 -2.950621 0.333531 2.171956 -3.675900 -1.181801 -83.236389 -77.462311 100.883420 10.369146 -2.486229 -24.228155 0.548443 -47.077053 12.933633 -114.573505 86.068630 -101.840505 -4.212536 -12.603012 -5.112282 -0.016220 0.713070 -0.008283 -11.254891 -50.936259 17.389422 -160.742787 80.811131 -166.952648 1.972787 -16.577875 5.430241 -0.008789 -0.410853 0.005343
8.639988 49.568714 46.383559 171.389752 -32.799361 -7.076413 6.967094 18.794789 7.457164 0.795940 2.490294 0.736220 1.326849 4.073870 1.228972 6.013100 16.202151 5.710352 -1.547347 15.368660 -0.519305 -2.695803 -7.260824 -0.406135 -1.313810 -3.568917 -3.156420 1.689012 -1.723451 1.082966 62.655295 -81.783336 -73.898512 2.192420 -0.345222 1.223992 -11.450547 -2.957175 0.296064 2.211095 -3.753367 -1.142957 -83.026432 -77.281628 100.773145 10.114919 -2.188746 -25.019060 0.237088 -47.224462 13.080588 -115.548261 86.052407 -102.870466 -4.096938 -12.674711 -5.180035 -0.038189 0.713765 -0.008242 -11.560483 -51.230047 17.635285 -160.772197 80.642860 -167.014524 2.018095 -16.254717 5.438108 -0.033523 -0.726052 -0.004508
8.656676 49.582415 46.353572 171.389735 -32.757990 -7.052472 6.968670 18.781013 7.462687 0.784043 2.471463 0.715340 1.325864 4.076400 1.239712 6.004556 16.197509 5.714077 -1.547275 15.384029 -0.506394 -2.697183 -7.269009 -0.438613 -1.300049 -3.543339 -3.136355 1.657245 -1.641449 1.111180 66.647644 -81.266161 -77.972451 2.511409 0.257978 1.666383 -11.453914 -2.955410 0.283862 2.264624 -3.827772 -1.109918 -82.850805 -77.066223 100.698218 9.833268 -1.841431 -25.942024 0.107170 -47.264560 13.115344 -116.673497 86.017840 -104.053700 -3.969341 -12.718451 -5.223049 -0.115785 0.635802 -0.031344 -11.575721 -51.274591 17.664745 -160.627354 80.590389 -166.896919 2.028029 -16.261549 5.447176 -0.048672 -0.743897 -0.007331
8.669383 49.590467 46.327019 171.417261 -32.686542 -7.022251 6.925325 18.727095 7.419171 0.795911 2.493074 0.747353 1.318615 4.069191 1.240469 5.980585 16.182917 5.693636 -1.550009 15.396932 -0.497883 -2.707305 -7.247708 -0.453879 -1.292779 -3.514984 -3.121678 1.626575 -1.566608 1.144794 70.361694 -80.632954 -81.773481 2.857525 0.851552 2.215356 -11.459095 -2.937618 0.277615 2.331800 -3.924425 -1.083840 -82.643653 -76.803838 100.588725 9.504615 -1.445265 -26.990332 -0.006543 -47.338730 13.107213 -117.727269 85.958097 -105.156437 -3.854286 -12.766754 -5.242856 -0.132109 0.603136 -0.054126 -11.584647 -51.353758 17.648875 -160.557637 80.550323 -166.842649 2.035590 -16.283422 5.455343 -0.041528 -0.735729 -0.011551
